<svg width="162" height="75" viewBox="0 0 162 75" fill="none" xmlns="http://www.w3.org/2000/svg">
<path d="M0 42.2664H10.6043V44.6503H2.68725V50.33H10.3356V52.7138H2.68725V58.5179H10.873V60.881H0V42.2664Z" fill="white"/>
<path d="M28.5882 42.2664H31.1308V60.9225H28.8363L16.3096 46.5573V60.9225H13.7877V42.2664H15.9581L28.5882 56.756V42.2664Z" fill="white"/>
<path d="M0.227386 65.545H5.43652V66.7266H1.52967V69.5457H5.31249V70.748H1.52967V73.6086H5.56055V74.7902H0.227386V65.545Z" fill="white"/>
<path d="M17.1984 74.8316V65.5451H20.2991C21.3239 65.4885 22.3467 65.688 23.2757 66.1255C23.9996 66.5019 24.6018 67.0771 25.0121 67.7838C25.4399 68.5119 25.6615 69.3433 25.6529 70.1883C25.6603 70.8006 25.5407 71.4077 25.3015 71.971C25.0669 72.5315 24.7225 73.0391 24.2886 73.4635C23.8417 73.8937 23.315 74.2318 22.7383 74.4585C22.4266 74.5878 22.1003 74.6783 21.7667 74.728C21.216 74.7607 20.6638 74.7607 20.113 74.728L17.1984 74.8316ZM20.175 66.7266H18.5214V73.6294H20.175C20.6955 73.6367 21.2153 73.5881 21.7254 73.4843C22.0441 73.4119 22.3505 73.2932 22.6349 73.1319C22.8767 72.9966 23.0992 72.8293 23.2964 72.6344C23.6216 72.3014 23.8756 71.9054 24.0426 71.4705C24.2097 71.0356 24.2864 70.5711 24.268 70.1054C24.2845 69.6536 24.2045 69.2035 24.0334 68.7852C23.8623 68.3669 23.6039 67.9901 23.2757 67.6801C23.024 67.4449 22.7383 67.2492 22.4282 67.0997C22.1406 66.9594 21.8342 66.8617 21.5187 66.8095C21.0649 66.7673 20.6081 66.7673 20.1544 66.8095" fill="white"/>
<path d="M46.9856 42.2664H49.6522L41.7558 60.9847H41.1356L33.0739 42.2664H35.7818L41.4044 55.3671L46.9856 42.2664Z" fill="white"/>
<path d="M54.4272 42.2664H51.74V60.9018H54.4272V42.2664Z" fill="white"/>
<path d="M58.6441 60.9225V42.2664H63.3365C64.9582 42.1817 66.5567 42.6817 67.8428 43.676C68.3936 44.1369 68.8311 44.7189 69.1215 45.3767C69.4118 46.0345 69.5472 46.7506 69.5171 47.4694C69.5444 48.473 69.255 49.4596 68.6903 50.2885C68.1105 51.1024 67.295 51.7176 66.3544 52.0505C67.015 52.5015 67.6068 53.0461 68.1115 53.6674C68.9864 54.7884 69.7874 55.9656 70.5094 57.1913C71.1708 58.2485 71.6876 59.0569 72.0803 59.5751L73.0726 60.9225H69.8892L69.0831 59.6995L68.9176 59.4715L68.4009 58.7252L67.5534 57.3778L66.6645 55.9061C66.2082 55.2548 65.6964 54.6445 65.1349 54.0819C64.7683 53.7012 64.3509 53.3733 63.8946 53.1077C63.3066 52.8617 62.6699 52.7552 62.0342 52.7967H61.3314V60.9225H58.6441ZM62.1375 44.5466H61.3314V50.4336H62.3442C63.2882 50.4921 64.2348 50.3726 65.1349 50.0812C65.6282 49.8713 66.0412 49.5079 66.3131 49.0448C66.6028 48.5635 66.7531 48.0108 66.7472 47.4487C66.7514 46.8809 66.5858 46.325 66.2717 45.8525C65.9646 45.3675 65.4959 45.0076 64.9488 44.8368C64.0305 44.6052 63.0836 44.5075 62.1375 44.5466" fill="white"/>
<path d="M82.6847 42.0176C84.0075 41.9758 85.3256 42.1959 86.5635 42.6654C87.8014 43.1349 88.9349 43.8446 89.899 44.7539C90.8372 45.6233 91.5804 46.6828 92.0794 47.8621C92.5783 49.0414 92.8216 50.3137 92.7929 51.5944C92.827 52.8779 92.5843 54.1536 92.0812 55.3342C91.5782 56.5148 90.8267 57.5726 89.8783 58.435C87.8781 60.2617 85.2435 61.2292 82.54 61.1298C81.2454 61.1734 79.9551 60.9575 78.7447 60.4948C77.5344 60.0321 76.4282 59.3318 75.4912 58.435C74.5699 57.5687 73.8415 56.5171 73.3534 55.349C72.8654 54.1809 72.6289 52.9227 72.6592 51.6566C72.6231 50.3695 72.8585 49.0892 73.3501 47.8996C73.8417 46.7101 74.5783 45.6381 75.5118 44.7539C76.4657 43.8421 77.5915 43.1304 78.8232 42.6605C80.0549 42.1907 81.3677 41.9721 82.6847 42.0176M82.7881 44.5466C81.8129 44.522 80.8426 44.6927 79.934 45.0487C79.0254 45.4046 78.1967 45.9386 77.4963 46.6195C76.8177 47.2834 76.2837 48.0812 75.9279 48.9624C75.5722 49.8436 75.4023 50.7892 75.4291 51.7395C75.4028 52.6744 75.5732 53.6044 75.9294 54.4687C76.2856 55.3331 76.8195 56.1124 77.4963 56.7559C78.1775 57.4338 78.9881 57.9667 79.8797 58.3229C80.7712 58.6791 81.7253 58.8512 82.6847 58.8288C83.6505 58.8532 84.6114 58.6822 85.5099 58.3261C86.4085 57.97 87.2263 57.436 87.9145 56.7559C88.5919 56.0998 89.1256 55.3094 89.4815 54.435C89.8374 53.5606 90.0077 52.6214 89.9816 51.6774C90.0012 50.7465 89.8276 49.8216 89.4717 48.9616C89.1158 48.1016 88.5855 47.3252 87.9145 46.6817C87.2374 46.0099 86.4334 45.4805 85.5495 45.1245C84.6656 44.7685 83.7197 44.5932 82.7674 44.6088" fill="white"/>
<path d="M92.7102 42.2457H108.338V44.6088H101.826V60.9225H99.1183V44.6088H92.7102V42.2457Z" fill="white"/>
<path d="M110.88 42.2664H121.485V44.6503H113.547V50.33H121.216V52.7138H113.547V58.5179H121.733V60.881H110.88V42.2664Z" fill="white"/>
<path d="M140.729 56.5901V59.5336C138.623 60.626 136.279 61.1746 133.908 61.1297C132.059 61.1878 130.227 60.759 128.595 59.886C127.149 59.0436 125.949 57.8334 125.118 56.3776C124.287 54.9218 123.854 53.2719 123.862 51.5944C123.836 50.3121 124.082 49.0389 124.585 47.8595C125.087 46.68 125.834 45.6214 126.776 44.7538C127.732 43.8359 128.86 43.1176 130.095 42.6408C131.33 42.1639 132.647 41.938 133.97 41.9762C136.235 42.0364 138.465 42.5583 140.523 43.5101V46.4329C138.578 45.26 136.362 44.6169 134.094 44.5673C132.113 44.5228 130.195 45.2683 128.761 46.6402C128.082 47.2908 127.547 48.0773 127.191 48.9487C126.835 49.8201 126.665 50.7568 126.694 51.698C126.662 52.6367 126.829 53.5714 127.186 54.44C127.542 55.3085 128.079 56.0909 128.761 56.7352C129.473 57.417 130.313 57.9511 131.232 58.3068C132.15 58.6625 133.13 58.8329 134.115 58.8081C136.487 58.7787 138.799 58.0585 140.771 56.7352" fill="white"/>
<path d="M157.225 42.2664H159.891V60.9225H157.225V52.7967H146.703V60.9225H144.016V42.2664H146.703V50.33H157.225V42.2664Z" fill="white"/>
<path d="M44.1742 65.545H45.4972V70.8102C45.5129 71.3541 45.4573 71.8977 45.3319 72.4271C45.2483 72.7396 45.1231 73.0394 44.9597 73.3184C44.5938 73.8795 44.0783 74.3265 43.4717 74.6087C42.8652 74.8908 42.1919 74.9968 41.5283 74.9145C40.4891 74.9661 39.467 74.6343 38.6551 73.9817C38.4311 73.7958 38.2421 73.5711 38.097 73.3184C37.9166 73.0558 37.7901 72.7599 37.7248 72.4478C37.5972 71.9047 37.5416 71.3471 37.5595 70.7895V65.545H38.9031V70.8102C38.8516 71.4328 38.9509 72.0586 39.1925 72.6344C39.4081 72.9891 39.725 73.2708 40.1021 73.4428C40.5453 73.6611 41.0348 73.7678 41.5283 73.7537C42.2163 73.7834 42.8918 73.5625 43.4301 73.1319C43.6858 72.9354 43.8796 72.6691 43.9882 72.3649C44.1387 71.8612 44.2016 71.3353 44.1742 70.8102V65.545Z" fill="white"/>
<path d="M65.2382 72.7587V74.2097C64.2087 74.7583 63.0549 75.0297 61.8895 74.9974C60.9816 75.0261 60.0825 74.8115 59.2849 74.3755C58.5699 73.9732 57.9824 73.3769 57.5899 72.655C57.0567 71.744 56.8462 70.679 56.9926 69.633C57.1389 68.5869 57.6335 67.6211 58.396 66.8924C58.8658 66.4414 59.4201 66.0882 60.0268 65.8534C60.6335 65.6186 61.2807 65.5067 61.9309 65.5243C63.0439 65.5602 64.1393 65.8137 65.1556 66.2705V67.7008C64.2013 67.1168 63.1105 66.7951 61.9929 66.768C61.5095 66.7505 61.0276 66.8315 60.5764 67.006C60.1252 67.1806 59.7139 67.4452 59.3676 67.7837C58.7221 68.4551 58.3683 69.3558 58.3838 70.2883C58.3993 71.2209 58.7828 72.1092 59.4503 72.7587C59.8007 73.0888 60.2136 73.3451 60.6645 73.5124C61.1154 73.6797 61.5952 73.7547 62.0755 73.7329C63.2005 73.7155 64.2974 73.3776 65.2382 72.7587" fill="white"/>
<path d="M82.9741 65.5035H83.9043L88.0385 74.8109H86.6742L85.4546 72.0746H81.5271L80.3695 74.8316H79.0259L82.9741 65.5035ZM84.9172 70.8931L83.4289 67.535L82.0439 70.8931H84.9172Z" fill="white"/>
<path d="M96.7824 65.5243H104.472V66.7058H101.268V74.8108H99.9451V66.7058H96.7824V65.5243Z" fill="white"/>
<path d="M117.743 65.545H116.42V74.8109H117.743V65.545Z" fill="white"/>
<path d="M134.735 65.4206C136.05 65.3832 137.328 65.8673 138.29 66.768C138.755 67.2054 139.122 67.7361 139.367 68.3255C139.613 68.9149 139.732 69.5497 139.716 70.1883C139.736 70.8233 139.616 71.4548 139.366 72.0385C139.116 72.6222 138.742 73.1439 138.269 73.5671C137.789 74.0191 137.223 74.371 136.606 74.6023C135.988 74.8336 135.331 74.9397 134.673 74.9145C134.033 74.9358 133.396 74.8275 132.799 74.5959C132.203 74.3644 131.659 74.0145 131.2 73.5671C130.746 73.1372 130.388 72.6156 130.149 72.0368C129.91 71.458 129.796 70.8351 129.815 70.209C129.795 69.5705 129.908 68.9348 130.146 68.3424C130.385 67.7499 130.744 67.2138 131.2 66.768C131.671 66.3207 132.226 65.9714 132.833 65.7402C133.44 65.5089 134.086 65.4003 134.735 65.4206M134.735 66.6851C134.256 66.6689 133.78 66.7485 133.332 66.9193C132.885 67.0902 132.476 67.3488 132.13 67.6801C131.481 68.3528 131.118 69.2522 131.118 70.1883C131.118 71.1244 131.481 72.0238 132.13 72.6965C132.469 73.0266 132.87 73.2848 133.311 73.4557C133.751 73.6267 134.221 73.7069 134.693 73.6915C135.167 73.7078 135.639 73.6261 136.08 73.4513C136.521 73.2765 136.922 73.0126 137.257 72.6758C137.594 72.3489 137.86 71.9554 138.038 71.5201C138.216 71.0848 138.302 70.6172 138.29 70.1469C138.298 69.6863 138.21 69.229 138.032 68.8043C137.854 68.3796 137.59 67.9967 137.257 67.6801C136.924 67.3542 136.529 67.0983 136.096 66.9274C135.663 66.7565 135.2 66.6742 134.735 66.6851Z" fill="white"/>
<path d="M158.197 65.545H159.437V74.8109H158.3L152.161 67.6801V74.8109H150.92V65.545H151.995L158.197 72.738V65.545Z" fill="white"/>
<path d="M155.447 14.9249V33.2908L162 33.27V16.9771L155.447 14.9249Z" fill="#159CC3"/>
<path d="M17.7979 18.0342L2.17047 22.5739V33.6224L17.7979 33.581V18.0342Z" fill="#17465E"/>
<path d="M17.7979 33.5809L25.0328 33.5602V15.9198L17.7979 18.0342V33.5809Z" fill="#87C5E0"/>
<path d="M25.0328 33.5602L38.221 33.5394V12.1057L25.0328 15.9198V33.5602Z" fill="#159CC3"/>
<path d="M38.221 12.1058V33.5395L42.6446 33.5188V11.2766L41.8798 11.0279L38.221 12.1058Z" fill="#83CAC7"/>
<path d="M42.6446 11.2766V33.5187L53.435 33.498V14.7176L53.3523 14.7797L42.6446 11.2766Z" fill="#159CC3"/>
<path d="M53.435 33.498H57.3005V11.6289L53.435 14.7176V33.498Z" fill="#17465E"/>
<path d="M57.3005 33.4981L63.5432 33.4773V6.61258L57.3005 11.629V33.4981Z" fill="#83CAC7"/>
<path d="M63.5225 6.63331V33.4981L71.1295 33.4773V2.50824L67.7394 3.23375L63.5225 6.63331Z" fill="#17465E"/>
<path d="M71.1502 33.5602L82.788 33.5394V0.103577L71.1502 2.59105V33.5602Z" fill="#87C5E0"/>
<path d="M87.3977 33.4358V2.77768L82.7881 0V33.4358H87.3977Z" fill="#159CC3"/>
<path d="M87.3977 33.4358L101.95 33.3944V11.5253L87.3977 2.77765V33.4358Z" fill="#266578"/>
<path d="M101.95 11.5253V33.3944L109.206 33.3737V9.55606L102.529 11.8777L101.95 11.5253Z" fill="#87C5E0"/>
<path d="M109.206 33.3737L122.725 33.3529V4.82986L109.206 9.55607V33.3737Z" fill="#266578"/>
<path d="M122.725 33.3529L137.732 33.3114V9.36948L122.973 4.74692L122.725 4.82983V33.3529Z" fill="#159CC3"/>
<path d="M137.732 33.3115H141.825V10.6547L137.732 9.36954V33.3115Z" fill="#266578"/>
<path d="M141.825 33.3115L151.933 33.2907V13.8262L141.825 10.6547V33.3115Z" fill="#87C5E0"/>
<path d="M151.933 33.2907L157.721 33.27V15.6296L151.933 13.8262V33.2907Z" fill="#266578"/>
</svg>
