<svg width="30" height="30" viewBox="0 0 30 30" fill="none" xmlns="http://www.w3.org/2000/svg">
<path d="M6.59197 19.9031C6.16172 20.1231 5.62881 20.0534 5.26998 19.7294C4.89223 19.3883 4.77943 18.8203 4.99811 18.3606C5.20459 17.9265 5.66836 17.6542 6.14924 17.6927C6.62619 17.7308 7.0377 18.0647 7.17773 18.5209C7.34121 19.0559 7.08932 19.6488 6.59197 19.9031ZM11.5177 18.5209C11.378 18.0636 10.9656 17.7324 10.4892 17.6931C9.99873 17.6527 9.52482 17.9384 9.32596 18.3867C9.12504 18.8397 9.23754 19.3876 9.60293 19.7229C9.96193 20.0524 10.4981 20.1237 10.9318 19.903C11.4289 19.65 11.6817 19.0547 11.5177 18.5209ZM25.9046 0.878906H13.3017C11.0436 0.878906 9.20637 2.71605 9.20637 4.97426V6.42551C9.20637 7.07273 9.73102 7.59738 10.3782 7.59738C11.0255 7.59738 11.5501 7.07273 11.5501 6.42551V4.97426C11.5501 4.00846 12.3359 3.22266 13.3017 3.22266H25.9046C26.8705 3.22266 27.6562 4.00846 27.6562 4.97426V14.1162C27.6562 15.082 26.8705 15.8678 25.9046 15.8678H24.6235C24.0773 15.8678 23.6036 16.2451 23.4814 16.7774L23.1671 18.1461C23.0222 18.7769 23.4161 19.4057 24.0469 19.5505C24.1352 19.5708 24.2234 19.5805 24.3103 19.5805C24.8442 19.5805 25.3268 19.2132 25.4514 18.6707L25.5568 18.2116H25.9048C28.1629 18.2116 30.0001 16.3744 30.0001 14.1162V4.97426C30 2.71605 28.1629 0.878906 25.9046 0.878906ZM15.8572 18.5209C15.717 18.0642 15.3073 17.7335 14.831 17.6933C14.3518 17.6528 13.8815 17.9254 13.6779 18.3605C13.4679 18.8095 13.5637 19.3576 13.9215 19.7032C14.2788 20.0484 14.8295 20.1291 15.2715 19.9031C15.7688 19.6488 16.0206 19.0559 15.8572 18.5209ZM16.6982 9.94113H4.09535C1.83715 9.94113 0 11.7783 0 14.0364V23.1784C0 25.4366 1.83715 27.2737 4.09535 27.2737H4.44328L4.65867 28.2115C4.74709 28.5966 5.02371 28.9113 5.39443 29.0483C5.52639 29.0971 5.66396 29.121 5.80072 29.121C6.04816 29.121 6.29297 29.0427 6.49764 28.8914L8.68512 27.2737H16.6984C18.9565 27.2737 20.7938 25.4366 20.7938 23.1784V23.0892C20.7938 22.442 20.2691 21.9173 19.6219 21.9173C18.9746 21.9173 18.45 22.442 18.45 23.0892V23.1784C18.45 24.1443 17.6643 24.93 16.6984 24.93H8.29875C8.04791 24.93 7.80369 25.0105 7.60195 25.1596L6.5424 25.9432L6.51861 25.8396C6.39639 25.3073 5.92266 24.93 5.3765 24.93H4.09535C3.12949 24.93 2.34375 24.1443 2.34375 23.1784V14.0364C2.34375 13.0706 3.12949 12.2848 4.09535 12.2848H16.6983C17.6641 12.2848 18.4499 13.0706 18.4499 14.0364V17.2298C18.4499 17.8771 18.9745 18.4017 19.6218 18.4017C20.269 18.4017 20.7936 17.8771 20.7936 17.2298V14.0364C20.7936 11.7783 18.9564 9.94113 16.6982 9.94113Z" fill="#1085A9"/>
</svg>
