<svg width="30" height="30" viewBox="0 0 30 30" fill="none" xmlns="http://www.w3.org/2000/svg">
<path d="M10.6012 17.5614L6.14813 18.6935C5.40738 18.8818 4.6875 18.322 4.6875 17.5577C4.6875 17.0217 5.05119 16.554 5.57068 16.4219L10.0238 15.2898C10.7645 15.1014 11.4844 15.6612 11.4844 16.4256C11.4844 16.9615 11.1207 17.4292 10.6012 17.5614ZM11.4844 7.05059C11.4844 6.28623 10.7645 5.72649 10.0237 5.91481L5.57062 7.04696C5.05119 7.17897 4.6875 7.64666 4.6875 8.18268C4.6875 8.94703 5.40738 9.50678 6.14818 9.31846L10.6012 8.18631C11.1207 8.05424 11.4844 7.58655 11.4844 7.05059ZM11.4844 11.7381C11.4844 10.9737 10.7645 10.414 10.0237 10.6023L5.57062 11.7345C5.05119 11.8665 4.6875 12.3342 4.6875 12.8702C4.6875 13.6345 5.40738 14.1943 6.14818 14.006L10.6012 12.8738C11.1207 12.7417 11.4844 12.274 11.4844 11.7381ZM28.8281 21.7963C29.4754 21.7963 30 21.2716 30 20.6244V7.23088C30 5.08489 28.5474 3.21674 26.4674 2.68787L16.7579 0.219379C15.6079 -0.0730041 14.3921 -0.0730041 13.2421 0.219379L3.5325 2.68793C1.4526 3.2168 0 5.08489 0 7.23088V26.4826C0 27.5755 0.494824 28.5871 1.35762 29.258C1.98404 29.7451 2.73668 29.9999 3.50748 29.9999C3.79828 29.9999 4.09172 29.9636 4.38188 29.8898L15 27.1903L25.6181 29.8898C26.6773 30.1592 27.7796 29.9288 28.6424 29.258C29.5052 28.5871 30 27.5755 30 26.4826C30 25.8354 29.4754 25.3107 28.8281 25.3107C28.1809 25.3107 27.6562 25.8354 27.6562 26.4826C27.6562 26.847 27.4913 27.1842 27.2037 27.4078C26.9162 27.6314 26.5488 27.7082 26.1956 27.6183L16.1719 25.07V5.8002C16.1719 5.15297 15.6472 4.62832 15 4.62832C14.3528 4.62832 13.8281 5.15297 13.8281 5.8002V25.0699L3.80438 27.6183C3.45141 27.7082 3.08391 27.6314 2.79627 27.4078C2.50869 27.1842 2.34375 26.847 2.34375 26.4826V7.23088C2.34375 6.15786 3.07008 5.22381 4.11 4.95938L13.8196 2.49088C14.5918 2.29454 15.4082 2.29454 16.1804 2.49088L25.8899 4.95938C26.9299 5.22381 27.6562 6.15791 27.6562 7.23088V20.6244C27.6562 21.2716 28.1809 21.7963 28.8281 21.7963ZM7.91432 20.6026L5.57062 21.2266C5.05119 21.3587 4.6875 21.8264 4.6875 22.3624C4.6875 23.1267 5.40738 23.6865 6.14818 23.4981L8.49187 22.8741C9.01137 22.7421 9.37506 22.2744 9.37506 21.7383C9.375 20.974 8.65512 20.4142 7.91432 20.6026Z" fill="#1085A9"/>
</svg>
